<?xml version="1.0" encoding="UTF-8" standalone="no"?>
<!DOCTYPE svg PUBLIC "-//W3C//DTD SVG 1.1//EN" "http://www.w3.org/Graphics/SVG/1.1/DTD/svg11.dtd">
<svg width="100%" height="100%" viewBox="0 0 1486 686" version="1.1" xmlns="http://www.w3.org/2000/svg" xmlns:xlink="http://www.w3.org/1999/xlink" xml:space="preserve" xmlns:serif="http://www.serif.com/" style="fill-rule:evenodd;clip-rule:evenodd;stroke-linejoin:round;stroke-miterlimit:2;">
    <g transform="matrix(1,0,0,1,-1356.46,-1746.88)">
        <g id="w---main-logo" serif:id="w - main logo" transform="matrix(1,0,0,0.842002,-1713.69,1746.88)">
            <rect x="3070.16" y="0" width="1485.15" height="814.274" style="fill:none;"/>
            <g id="text">
                <g transform="matrix(1,0,0,1.18765,1365.94,-24.0884)">
                    <g>
                        <path d="M2254.2,219.521C2266.65,219.521 2277.98,222.384 2288.19,228.111C2298.4,233.837 2306.41,241.888 2312.22,252.262C2318.03,262.636 2320.93,274.712 2320.93,288.489C2320.93,302.266 2318.03,314.342 2312.22,324.716C2306.41,335.09 2298.4,343.14 2288.19,348.867C2277.98,354.594 2266.65,357.457 2254.2,357.457C2237.11,357.457 2223.66,352.062 2213.87,341.273L2213.87,393.551L2175.03,403.768L2175.03,216.514L2212.13,221.513L2212.13,236.949C2221.75,225.33 2235.78,219.521 2254.2,219.521ZM1835.92,168.728L1876.25,168.728L1876.25,381.177L1835.92,398.771L1835.92,168.728ZM3018.82,168.728L3057.66,168.728L3057.66,398.771L3018.82,381.247L3018.82,168.728ZM2759.14,349.744L2759.14,254.378L2738.47,254.378L2738.47,224.5L2759.14,224.5L2759.14,218.525C2759.14,203.254 2763.66,191.137 2772.71,182.173C2781.76,173.21 2794.5,168.728 2810.93,168.728C2816.74,168.728 2822.26,169.351 2827.49,170.596C2832.72,171.841 2837.07,173.625 2840.56,175.949L2830.35,204.084C2825.87,200.93 2820.64,199.353 2814.66,199.353C2802.88,199.353 2796.99,205.827 2796.99,218.774L2796.99,224.5L2831.35,224.5L2831.35,254.378L2797.98,254.378L2797.98,370.198L2759.14,349.744ZM2465.34,355.465L2428.99,355.465L2428.99,338.783C2421.69,351.232 2408.08,357.457 2388.16,357.457C2377.87,357.457 2368.94,355.714 2361.39,352.228C2353.84,348.743 2348.07,343.929 2344.09,337.787C2340.1,331.646 2338.11,324.674 2338.11,316.873C2338.11,304.424 2342.8,294.63 2352.18,287.493C2361.56,280.355 2376.04,276.787 2395.63,276.787L2426.5,276.787C2426.5,268.321 2423.93,261.806 2418.78,257.242C2413.64,252.677 2405.92,250.395 2395.63,250.395C2388.49,250.395 2381.48,251.515 2374.59,253.756C2367.7,255.997 2361.85,259.026 2357.03,262.844L2343.09,235.705C2350.39,230.559 2359.15,226.575 2369.36,223.753C2379.57,220.932 2390.07,219.521 2400.86,219.521C2421.6,219.521 2437.54,224.459 2448.66,234.335C2459.78,244.211 2465.34,259.109 2465.34,279.028L2465.34,355.465ZM2689.67,224.5L2723.04,224.5L2723.04,254.378L2689.67,254.378L2689.67,308.905C2689.67,314.549 2691.13,318.906 2694.03,321.977C2696.94,325.048 2701.05,326.583 2706.36,326.583C2712.5,326.583 2717.73,324.923 2722.04,321.604L2732.5,348.992C2728.68,351.813 2723.99,353.93 2718.43,355.341C2712.87,356.752 2707.02,357.457 2700.88,357.457C2684.94,357.457 2672.62,353.39 2663.91,345.257C2655.19,337.123 2650.83,325.172 2650.83,309.403L2650.83,254.378L2630.17,254.378L2630.17,224.5L2650.83,224.5L2650.83,196.914L2689.67,181.914L2689.67,224.5ZM2989.72,355.465L2952.87,355.465L2952.87,339.53C2947.72,345.34 2941.58,349.78 2934.44,352.851C2927.3,355.922 2919.58,357.457 2911.28,357.457C2893.69,357.457 2879.75,352.394 2869.46,342.269C2859.16,332.144 2854.02,317.122 2854.02,297.203L2854.02,221.513L2892.86,221.513L2892.86,291.477C2892.86,313.055 2901.91,323.844 2920,323.844C2929.3,323.844 2936.76,320.815 2942.41,314.756C2948.05,308.698 2950.87,299.693 2950.87,287.742L2950.87,221.513L2989.72,221.513L2989.72,355.465ZM2556.69,357.457C2542.41,357.457 2529.59,354.511 2518.22,348.618C2506.85,342.726 2497.97,334.551 2491.58,324.093C2485.19,313.636 2481.99,301.768 2481.99,288.489C2481.99,275.21 2485.19,263.342 2491.58,252.884C2497.97,242.427 2506.85,234.252 2518.22,228.36C2529.59,222.467 2542.41,219.521 2556.69,219.521C2570.8,219.521 2583.12,222.467 2593.66,228.36C2604.2,234.252 2611.88,242.676 2616.69,253.631L2586.57,269.815C2579.6,257.532 2569.55,251.39 2556.44,251.39C2546.32,251.39 2537.93,254.71 2531.29,261.35C2524.65,267.989 2521.33,277.036 2521.33,288.489C2521.33,299.942 2524.65,308.988 2531.29,315.628C2537.93,322.267 2546.32,325.587 2556.44,325.587C2569.72,325.587 2579.76,319.446 2586.57,307.163L2616.69,323.595C2611.88,334.219 2604.2,342.518 2593.66,348.494C2583.12,354.469 2570.8,357.457 2556.69,357.457ZM1954.69,355.465L1915.85,355.465L1915.85,216.514L1952.94,221.513L1952.94,236.949C1957.92,231.306 1964.02,226.99 1971.24,224.002C1978.46,221.015 1986.39,219.521 1995.02,219.521C2004.48,219.521 2013.03,221.388 2020.67,225.123C2028.3,228.858 2034.44,234.294 2039.09,241.431C2044.57,234.46 2051.5,229.065 2059.88,225.247C2068.26,221.43 2077.43,219.521 2087.39,219.521C2104.16,219.521 2117.48,224.459 2127.36,234.335C2137.23,244.211 2142.17,259.026 2142.17,278.779L2142.17,355.465L2103.33,355.465L2103.33,284.754C2103.33,274.131 2101.13,266.205 2096.73,260.976C2092.33,255.748 2086.07,253.133 2077.93,253.133C2068.8,253.133 2061.58,256.08 2056.27,261.972C2050.96,267.865 2048.3,276.621 2048.3,288.24L2048.3,355.465L2009.46,355.465L2009.46,284.754C2009.46,263.674 2001,253.133 1984.07,253.133C1975.1,253.133 1967.97,256.08 1962.65,261.972C1957.34,267.865 1954.69,276.621 1954.69,288.24L1954.69,355.465ZM2426.5,299.444L2399.86,299.444C2383.91,299.455 2375.96,304.684 2375.96,315.13C2375.96,320.11 2377.91,324.052 2381.81,326.957C2385.71,329.861 2391.06,331.314 2397.87,331.314C2404.51,331.314 2410.4,329.778 2415.55,326.708C2420.69,323.637 2424.34,319.114 2426.5,313.138L2426.5,299.444ZM2247.48,325.587C2257.44,325.587 2265.62,322.226 2272.01,315.503C2278.4,308.781 2281.59,299.776 2281.59,288.489C2281.59,277.202 2278.4,268.197 2272.01,261.474C2265.62,254.752 2257.44,251.39 2247.48,251.39C2237.52,251.39 2229.35,254.752 2222.96,261.474C2216.57,268.197 2213.37,277.202 2213.37,288.489C2213.37,299.776 2216.57,308.781 2222.96,315.503C2229.35,322.226 2237.52,325.587 2247.48,325.587Z" style="fill:rgb(248,247,254);"/>
                        <path d="M3031.3,555.465L2994.95,555.465L2994.95,538.783C2987.65,551.232 2974.04,557.457 2954.12,557.457C2943.83,557.457 2934.91,555.714 2927.35,552.228C2919.8,548.743 2914.03,543.929 2910.05,537.787C2906.07,531.646 2904.07,524.674 2904.07,516.873C2904.07,504.424 2908.76,494.63 2918.14,487.493C2927.52,480.355 2942,476.787 2961.59,476.787L2992.46,476.787C2992.46,468.321 2989.89,461.806 2984.74,457.242C2979.6,452.677 2971.88,450.395 2961.59,450.395C2954.45,450.395 2947.44,451.515 2940.55,453.756C2933.66,455.997 2927.81,459.026 2923,462.844L2909.05,435.705C2916.36,430.559 2925.11,426.575 2935.32,423.753C2945.53,420.932 2956.03,419.521 2966.82,419.521C2987.57,419.521 3003.5,424.459 3014.62,434.335C3025.74,444.211 3031.3,459.109 3031.3,479.028L3031.3,555.465ZM2530.57,499.444C2532.41,507.762 2536.72,514.307 2543.52,519.114C2550.33,523.927 2558.79,526.334 2568.91,526.334C2575.89,526.334 2582.07,525.297 2587.47,523.222C2592.86,521.147 2597.88,517.869 2602.53,513.387L2623.19,535.796C2610.58,550.236 2592.15,557.457 2567.92,557.457C2552.81,557.457 2539.45,554.511 2527.83,548.618C2516.21,542.726 2507.25,534.551 2500.94,524.093C2494.64,513.636 2491.48,501.768 2491.48,488.489C2491.48,475.376 2494.59,463.549 2500.82,453.009C2507.04,442.469 2515.59,434.252 2526.46,428.36C2537.34,422.467 2549.49,419.521 2562.94,419.521C2576.05,419.521 2587.92,422.343 2598.54,427.986C2609.17,433.63 2617.51,441.722 2623.57,452.262C2629.63,462.802 2632.66,475.044 2632.66,488.987L2631.91,499.444L2530.57,499.444ZM2759.15,363.558L2797.99,384.011L2797.99,555.465L2760.89,555.465L2760.89,540.028C2751.27,551.647 2737.32,557.457 2719.06,557.457C2706.45,557.457 2695.04,554.635 2684.83,548.992C2674.62,543.348 2666.61,535.298 2660.8,524.84C2654.99,514.383 2652.09,502.266 2652.09,488.489C2652.09,474.712 2654.99,462.595 2660.8,452.137C2666.61,441.68 2674.62,433.63 2684.83,427.986C2695.04,422.343 2706.45,419.521 2719.06,419.521C2736.16,419.521 2749.52,424.915 2759.15,435.705L2759.15,363.558ZM2307.25,555.465L2269.4,555.465L2269.4,381.177L2302.76,381.177L2368,489.485L2432.24,381.177L2465.35,381.177L2465.85,555.465L2428,555.465L2427.76,450.893L2376.46,537.04L2358.29,537.04L2307.25,453.133L2307.25,555.465ZM2875.69,555.465L2836.85,555.465L2836.85,434.901L2875.69,434.901L2875.69,555.465ZM2992.46,499.444L2965.82,499.444C2949.87,499.452 2941.92,504.681 2941.92,515.13C2941.92,520.11 2943.87,524.052 2947.77,526.957C2951.67,529.861 2957.02,531.314 2963.83,531.314C2970.47,531.314 2976.36,529.778 2981.51,526.708C2986.65,523.637 2990.3,519.114 2992.46,513.138L2992.46,499.444ZM2725.79,525.587C2735.58,525.587 2743.71,522.226 2750.19,515.503C2756.66,508.781 2759.9,499.776 2759.9,488.489C2759.9,477.202 2756.66,468.197 2750.19,461.474C2743.71,454.752 2735.58,451.39 2725.79,451.39C2715.83,451.39 2707.61,454.752 2701.14,461.474C2694.66,468.197 2691.43,477.202 2691.43,488.489C2691.43,499.776 2694.66,508.781 2701.14,515.503C2707.61,522.226 2715.83,525.587 2725.79,525.587ZM2563.19,448.901C2554.39,448.901 2547.01,451.39 2541.03,456.37C2535.05,461.35 2531.4,468.155 2530.07,476.787L2596.05,476.787C2594.73,468.321 2591.08,461.557 2585.1,456.495C2579.12,451.432 2571.82,448.901 2563.19,448.901Z" style="fill:rgb(248,247,254);"/>
                        <g transform="matrix(1,0,0,1,2.37937,10.7589)">
                            <path d="M2853.36,399.971C2851.02,403.047 2848.33,405.485 2845.3,407.29C2842.02,409.241 2837.99,410.217 2833.22,410.217C2829.21,410.217 2825.57,409.258 2822.29,407.34C2819.01,405.423 2816.45,402.765 2814.61,399.367C2812.76,395.969 2811.84,392.184 2811.84,388.012C2811.84,383.773 2812.76,379.972 2814.61,376.607C2816.45,373.243 2819.01,370.602 2822.29,368.684C2825.57,366.767 2829.21,365.808 2833.22,365.808C2837.99,365.808 2842.02,366.783 2845.3,368.735C2846.69,369.563 2848.01,370.526 2849.25,371.627C2846.32,375.152 2845.4,377.522 2841.47,381.764L2841.05,381.401C2839.2,379.888 2837.01,379.131 2834.46,379.131C2832.11,379.131 2830.13,379.972 2828.54,381.654C2826.95,383.336 2826.16,385.455 2826.16,388.012C2826.16,390.569 2826.95,392.689 2828.54,394.371C2830.13,396.053 2832.11,396.894 2834.46,396.894C2837.01,396.894 2839.2,396.137 2841.05,394.623C2842.51,393.426 2843.99,391.798 2845.48,389.732C2850.52,382.858 2852.06,377.807 2858.34,372.005C2859.74,370.748 2861.21,369.658 2862.76,368.735C2866.04,366.783 2870.07,365.808 2874.84,365.808C2878.78,365.808 2882.36,366.767 2885.58,368.684C2888.79,370.602 2891.32,373.26 2893.17,376.658C2895.01,380.056 2895.93,383.841 2895.93,388.012C2895.93,392.184 2895.01,395.969 2893.17,399.367C2891.32,402.765 2888.79,405.423 2885.58,407.34C2882.36,409.258 2878.78,410.217 2874.84,410.217C2870.07,410.217 2866.04,409.241 2862.76,407.29C2861.46,406.512 2860.2,405.616 2859.01,404.597C2861.8,401.306 2864.34,397.388 2866.02,394.061L2866.68,394.623C2868.55,396.137 2870.77,396.894 2873.31,396.894C2875.67,396.894 2877.62,396.053 2879.18,394.371C2880.74,392.689 2881.52,390.569 2881.52,388.012C2881.52,385.455 2880.74,383.336 2879.18,381.654C2877.62,379.972 2875.67,379.131 2873.31,379.131C2870.77,379.131 2868.55,379.888 2866.68,381.401C2865.78,382.123 2864.9,383 2864.03,384.036L2863.99,384.081L2863.98,384.096L2863.9,384.19L2863.28,384.964C2859.82,389.405 2854.98,397.629 2853.36,399.971Z" style="fill:rgb(248,247,254);"/>
                        </g>
                    </g>
                    <g>
                        <path d="M2254.2,219.521C2266.65,219.521 2277.98,222.384 2288.19,228.111C2298.4,233.837 2306.41,241.888 2312.22,252.262C2318.03,262.636 2320.93,274.712 2320.93,288.489C2320.93,302.266 2318.03,314.342 2312.22,324.716C2306.41,335.09 2298.4,343.14 2288.19,348.867C2277.98,354.594 2266.65,357.457 2254.2,357.457C2237.11,357.457 2223.66,352.062 2213.87,341.273L2213.87,393.551L2175.03,403.768L2175.03,216.514L2212.13,221.513L2212.13,236.949C2221.75,225.33 2235.78,219.521 2254.2,219.521ZM1835.92,168.728L1876.25,168.728L1876.25,381.177L1835.92,398.771L1835.92,168.728ZM3018.82,168.728L3057.66,168.728L3057.66,398.771L3018.82,381.247L3018.82,168.728ZM2759.14,349.744L2759.14,254.378L2738.47,254.378L2738.47,224.5L2759.14,224.5L2759.14,218.525C2759.14,203.254 2763.66,191.137 2772.71,182.173C2781.76,173.21 2794.5,168.728 2810.93,168.728C2816.74,168.728 2822.26,169.351 2827.49,170.596C2832.72,171.841 2837.07,173.625 2840.56,175.949L2830.35,204.084C2825.87,200.93 2820.64,199.353 2814.66,199.353C2802.88,199.353 2796.99,205.827 2796.99,218.774L2796.99,224.5L2831.35,224.5L2831.35,254.378L2797.98,254.378L2797.98,370.198L2759.14,349.744ZM2465.34,355.465L2428.99,355.465L2428.99,338.783C2421.69,351.232 2408.08,357.457 2388.16,357.457C2377.87,357.457 2368.94,355.714 2361.39,352.228C2353.84,348.743 2348.07,343.929 2344.09,337.787C2340.1,331.646 2338.11,324.674 2338.11,316.873C2338.11,304.424 2342.8,294.63 2352.18,287.493C2361.56,280.355 2376.04,276.787 2395.63,276.787L2426.5,276.787C2426.5,268.321 2423.93,261.806 2418.78,257.242C2413.64,252.677 2405.92,250.395 2395.63,250.395C2388.49,250.395 2381.48,251.515 2374.59,253.756C2367.7,255.997 2361.85,259.026 2357.03,262.844L2343.09,235.705C2350.39,230.559 2359.15,226.575 2369.36,223.753C2379.57,220.932 2390.07,219.521 2400.86,219.521C2421.6,219.521 2437.54,224.459 2448.66,234.335C2459.78,244.211 2465.34,259.109 2465.34,279.028L2465.34,355.465ZM2689.67,224.5L2723.04,224.5L2723.04,254.378L2689.67,254.378L2689.67,308.905C2689.67,314.549 2691.13,318.906 2694.03,321.977C2696.94,325.048 2701.05,326.583 2706.36,326.583C2712.5,326.583 2717.73,324.923 2722.04,321.604L2732.5,348.992C2728.68,351.813 2723.99,353.93 2718.43,355.341C2712.87,356.752 2707.02,357.457 2700.88,357.457C2684.94,357.457 2672.62,353.39 2663.91,345.257C2655.19,337.123 2650.83,325.172 2650.83,309.403L2650.83,254.378L2630.17,254.378L2630.17,224.5L2650.83,224.5L2650.83,196.914L2689.67,181.914L2689.67,224.5ZM2989.72,355.465L2952.87,355.465L2952.87,339.53C2947.72,345.34 2941.58,349.78 2934.44,352.851C2927.3,355.922 2919.58,357.457 2911.28,357.457C2893.69,357.457 2879.75,352.394 2869.46,342.269C2859.16,332.144 2854.02,317.122 2854.02,297.203L2854.02,221.513L2892.86,221.513L2892.86,291.477C2892.86,313.055 2901.91,323.844 2920,323.844C2929.3,323.844 2936.76,320.815 2942.41,314.756C2948.05,308.698 2950.87,299.693 2950.87,287.742L2950.87,221.513L2989.72,221.513L2989.72,355.465ZM2556.69,357.457C2542.41,357.457 2529.59,354.511 2518.22,348.618C2506.85,342.726 2497.97,334.551 2491.58,324.093C2485.19,313.636 2481.99,301.768 2481.99,288.489C2481.99,275.21 2485.19,263.342 2491.58,252.884C2497.97,242.427 2506.85,234.252 2518.22,228.36C2529.59,222.467 2542.41,219.521 2556.69,219.521C2570.8,219.521 2583.12,222.467 2593.66,228.36C2604.2,234.252 2611.88,242.676 2616.69,253.631L2586.57,269.815C2579.6,257.532 2569.55,251.39 2556.44,251.39C2546.32,251.39 2537.93,254.71 2531.29,261.35C2524.65,267.989 2521.33,277.036 2521.33,288.489C2521.33,299.942 2524.65,308.988 2531.29,315.628C2537.93,322.267 2546.32,325.587 2556.44,325.587C2569.72,325.587 2579.76,319.446 2586.57,307.163L2616.69,323.595C2611.88,334.219 2604.2,342.518 2593.66,348.494C2583.12,354.469 2570.8,357.457 2556.69,357.457ZM1954.69,355.465L1915.85,355.465L1915.85,216.514L1952.94,221.513L1952.94,236.949C1957.92,231.306 1964.02,226.99 1971.24,224.002C1978.46,221.015 1986.39,219.521 1995.02,219.521C2004.48,219.521 2013.03,221.388 2020.67,225.123C2028.3,228.858 2034.44,234.294 2039.09,241.431C2044.57,234.46 2051.5,229.065 2059.88,225.247C2068.26,221.43 2077.43,219.521 2087.39,219.521C2104.16,219.521 2117.48,224.459 2127.36,234.335C2137.23,244.211 2142.17,259.026 2142.17,278.779L2142.17,355.465L2103.33,355.465L2103.33,284.754C2103.33,274.131 2101.13,266.205 2096.73,260.976C2092.33,255.748 2086.07,253.133 2077.93,253.133C2068.8,253.133 2061.58,256.08 2056.27,261.972C2050.96,267.865 2048.3,276.621 2048.3,288.24L2048.3,355.465L2009.46,355.465L2009.46,284.754C2009.46,263.674 2001,253.133 1984.07,253.133C1975.1,253.133 1967.97,256.08 1962.65,261.972C1957.34,267.865 1954.69,276.621 1954.69,288.24L1954.69,355.465ZM2426.5,299.444L2399.86,299.444C2383.91,299.455 2375.96,304.684 2375.96,315.13C2375.96,320.11 2377.91,324.052 2381.81,326.957C2385.71,329.861 2391.06,331.314 2397.87,331.314C2404.51,331.314 2410.4,329.778 2415.55,326.708C2420.69,323.637 2424.34,319.114 2426.5,313.138L2426.5,299.444ZM2247.48,325.587C2257.44,325.587 2265.62,322.226 2272.01,315.503C2278.4,308.781 2281.59,299.776 2281.59,288.489C2281.59,277.202 2278.4,268.197 2272.01,261.474C2265.62,254.752 2257.44,251.39 2247.48,251.39C2237.52,251.39 2229.35,254.752 2222.96,261.474C2216.57,268.197 2213.37,277.202 2213.37,288.489C2213.37,299.776 2216.57,308.781 2222.96,315.503C2229.35,322.226 2237.52,325.587 2247.48,325.587Z" style="fill:rgb(248,247,254);"/>
                        <path d="M3031.3,555.465L2994.95,555.465L2994.95,538.783C2987.65,551.232 2974.04,557.457 2954.12,557.457C2943.83,557.457 2934.91,555.714 2927.35,552.228C2919.8,548.743 2914.03,543.929 2910.05,537.787C2906.07,531.646 2904.07,524.674 2904.07,516.873C2904.07,504.424 2908.76,494.63 2918.14,487.493C2927.52,480.355 2942,476.787 2961.59,476.787L2992.46,476.787C2992.46,468.321 2989.89,461.806 2984.74,457.242C2979.6,452.677 2971.88,450.395 2961.59,450.395C2954.45,450.395 2947.44,451.515 2940.55,453.756C2933.66,455.997 2927.81,459.026 2923,462.844L2909.05,435.705C2916.36,430.559 2925.11,426.575 2935.32,423.753C2945.53,420.932 2956.03,419.521 2966.82,419.521C2987.57,419.521 3003.5,424.459 3014.62,434.335C3025.74,444.211 3031.3,459.109 3031.3,479.028L3031.3,555.465ZM2530.57,499.444C2532.41,507.762 2536.72,514.307 2543.52,519.114C2550.33,523.927 2558.79,526.334 2568.91,526.334C2575.89,526.334 2582.07,525.297 2587.47,523.222C2592.86,521.147 2597.88,517.869 2602.53,513.387L2623.19,535.796C2610.58,550.236 2592.15,557.457 2567.92,557.457C2552.81,557.457 2539.45,554.511 2527.83,548.618C2516.21,542.726 2507.25,534.551 2500.94,524.093C2494.64,513.636 2491.48,501.768 2491.48,488.489C2491.48,475.376 2494.59,463.549 2500.82,453.009C2507.04,442.469 2515.59,434.252 2526.46,428.36C2537.34,422.467 2549.49,419.521 2562.94,419.521C2576.05,419.521 2587.92,422.343 2598.54,427.986C2609.17,433.63 2617.51,441.722 2623.57,452.262C2629.63,462.802 2632.66,475.044 2632.66,488.987L2631.91,499.444L2530.57,499.444ZM2759.15,363.558L2797.99,384.011L2797.99,555.465L2760.89,555.465L2760.89,540.028C2751.27,551.647 2737.32,557.457 2719.06,557.457C2706.45,557.457 2695.04,554.635 2684.83,548.992C2674.62,543.348 2666.61,535.298 2660.8,524.84C2654.99,514.383 2652.09,502.266 2652.09,488.489C2652.09,474.712 2654.99,462.595 2660.8,452.137C2666.61,441.68 2674.62,433.63 2684.83,427.986C2695.04,422.343 2706.45,419.521 2719.06,419.521C2736.16,419.521 2749.52,424.915 2759.15,435.705L2759.15,363.558ZM2307.25,555.465L2269.4,555.465L2269.4,381.177L2302.76,381.177L2368,489.485L2432.24,381.177L2465.35,381.177L2465.85,555.465L2428,555.465L2427.76,450.893L2376.46,537.04L2358.29,537.04L2307.25,453.133L2307.25,555.465ZM2875.69,555.465L2836.85,555.465L2836.85,434.901L2875.69,434.901L2875.69,555.465ZM2992.46,499.444L2965.82,499.444C2949.87,499.452 2941.92,504.681 2941.92,515.13C2941.92,520.11 2943.87,524.052 2947.77,526.957C2951.67,529.861 2957.02,531.314 2963.83,531.314C2970.47,531.314 2976.36,529.778 2981.51,526.708C2986.65,523.637 2990.3,519.114 2992.46,513.138L2992.46,499.444ZM2725.79,525.587C2735.58,525.587 2743.71,522.226 2750.19,515.503C2756.66,508.781 2759.9,499.776 2759.9,488.489C2759.9,477.202 2756.66,468.197 2750.19,461.474C2743.71,454.752 2735.58,451.39 2725.79,451.39C2715.83,451.39 2707.61,454.752 2701.14,461.474C2694.66,468.197 2691.43,477.202 2691.43,488.489C2691.43,499.776 2694.66,508.781 2701.14,515.503C2707.61,522.226 2715.83,525.587 2725.79,525.587ZM2563.19,448.901C2554.39,448.901 2547.01,451.39 2541.03,456.37C2535.05,461.35 2531.4,468.155 2530.07,476.787L2596.05,476.787C2594.73,468.321 2591.08,461.557 2585.1,456.495C2579.12,451.432 2571.82,448.901 2563.19,448.901Z" style="fill:rgb(248,247,254);"/>
                        <g transform="matrix(1,0,0,1,2.37937,10.7589)">
                            <path d="M2853.36,399.971C2851.02,403.047 2848.33,405.485 2845.3,407.29C2842.02,409.241 2837.99,410.217 2833.22,410.217C2829.21,410.217 2825.57,409.258 2822.29,407.34C2819.01,405.423 2816.45,402.765 2814.61,399.367C2812.76,395.969 2811.84,392.184 2811.84,388.012C2811.84,383.773 2812.76,379.972 2814.61,376.607C2816.45,373.243 2819.01,370.602 2822.29,368.684C2825.57,366.767 2829.21,365.808 2833.22,365.808C2837.99,365.808 2842.02,366.783 2845.3,368.735C2846.69,369.563 2848.01,370.526 2849.25,371.627C2846.32,375.152 2845.4,377.522 2841.47,381.764L2841.05,381.401C2839.2,379.888 2837.01,379.131 2834.46,379.131C2832.11,379.131 2830.13,379.972 2828.54,381.654C2826.95,383.336 2826.16,385.455 2826.16,388.012C2826.16,390.569 2826.95,392.689 2828.54,394.371C2830.13,396.053 2832.11,396.894 2834.46,396.894C2837.01,396.894 2839.2,396.137 2841.05,394.623C2842.51,393.426 2843.99,391.798 2845.48,389.732C2850.52,382.858 2852.06,377.807 2858.34,372.005C2859.74,370.748 2861.21,369.658 2862.76,368.735C2866.04,366.783 2870.07,365.808 2874.84,365.808C2878.78,365.808 2882.36,366.767 2885.58,368.684C2888.79,370.602 2891.32,373.26 2893.17,376.658C2895.01,380.056 2895.93,383.841 2895.93,388.012C2895.93,392.184 2895.01,395.969 2893.17,399.367C2891.32,402.765 2888.79,405.423 2885.58,407.34C2882.36,409.258 2878.78,410.217 2874.84,410.217C2870.07,410.217 2866.04,409.241 2862.76,407.29C2861.46,406.512 2860.2,405.616 2859.01,404.597C2861.8,401.306 2864.34,397.388 2866.02,394.061L2866.68,394.623C2868.55,396.137 2870.77,396.894 2873.31,396.894C2875.67,396.894 2877.62,396.053 2879.18,394.371C2880.74,392.689 2881.52,390.569 2881.52,388.012C2881.52,385.455 2880.74,383.336 2879.18,381.654C2877.62,379.972 2875.67,379.131 2873.31,379.131C2870.77,379.131 2868.55,379.888 2866.68,381.401C2865.78,382.123 2864.9,383 2864.03,384.036L2863.99,384.081L2863.98,384.096L2863.9,384.19L2863.28,384.964C2859.82,389.405 2854.98,397.629 2853.36,399.971Z" style="fill:rgb(248,247,254);"/>
                        </g>
                    </g>
                </g>
            </g>
        </g>
    </g>
</svg>
